{
    "asset" : {
        "generator" : "Khronos glTF Blender I/O v1.6.16",
        "version" : "2.0"
    },
    "scene" : 0,
    "scenes" : [
        {
            "name" : "Scene",
            "nodes" : [
                0,
                1
            ]
        }
    ],
    "nodes" : [
        {
            "mesh" : 0,
            "name" : "body.001",
            "rotation" : [
                0.7071068286895752,
                0,
                0,
                0.7071067094802856
            ],
            "scale" : [
                0.010563458316028118,
                0.010563458316028118,
                0.010563458316028118
            ],
            "translation" : [
                0.809722900390625,
                46.597721099853516,
                -0.29610157012939453
            ]
        },
        {
            "mesh" : 1,
            "name" : "imageContainer.002",
            "rotation" : [
                0.7071068286895752,
                0,
                0,
                0.7071067094802856
            ],
            "scale" : [
                0.010563458316028118,
                0.010563458316028118,
                0.010563458316028118
            ],
            "translation" : [
                0.809722900390625,
                46.597721099853516,
                -0.29610157012939453
            ]
        }
    ],
    "materials" : [
        {
            "doubleSided" : true,
            "name" : "default.001",
            "pbrMetallicRoughness" : {
                "baseColorTexture" : {
                    "index" : 0
                },
                "metallicFactor" : 0,
                "roughnessFactor" : 0.5
            }
        }
    ],
    "meshes" : [
        {
            "name" : "body.001",
            "primitives" : [
                {
                    "attributes" : {
                        "POSITION" : 0,
                        "NORMAL" : 1,
                        "TEXCOORD_0" : 2
                    },
                    "indices" : 3,
                    "material" : 0
                }
            ]
        },
        {
            "name" : "body.002",
            "primitives" : [
                {
                    "attributes" : {
                        "POSITION" : 4,
                        "NORMAL" : 5,
                        "TEXCOORD_0" : 6
                    },
                    "indices" : 7,
                    "material" : 0
                }
            ]
        }
    ],
    "textures" : [
        {
            "sampler" : 0,
            "source" : 0
        }
    ],
    "images" : [
        {
            "bufferView" : 4,
            "mimeType" : "image/jpeg",
            "name" : "metal-base"
        }
    ],
    "accessors" : [
        {
            "bufferView" : 0,
            "componentType" : 5126,
            "count" : 13663,
            "max" : [
                3738.12109375,
                614.752685546875,
                4381.67626953125
            ],
            "min" : [
                -3737.87890625,
                -613.768310546875,
                -10774.24609375
            ],
            "type" : "VEC3"
        },
        {
            "bufferView" : 1,
            "componentType" : 5126,
            "count" : 13663,
            "type" : "VEC3"
        },
        {
            "bufferView" : 2,
            "componentType" : 5126,
            "count" : 13663,
            "type" : "VEC2"
        },
        {
            "bufferView" : 3,
            "componentType" : 5123,
            "count" : 62214,
            "type" : "SCALAR"
        },
        {
            "bufferView" : 5,
            "componentType" : 5126,
            "count" : 52,
            "max" : [
                3496.708984375,
                623.03173828125,
                190.55419921875
            ],
            "min" : [
                -3488.6787109375,
                -622.785400390625,
                -10525.0458984375
            ],
            "type" : "VEC3"
        },
        {
            "bufferView" : 6,
            "componentType" : 5126,
            "count" : 52,
            "type" : "VEC3"
        },
        {
            "bufferView" : 7,
            "componentType" : 5126,
            "count" : 52,
            "type" : "VEC2"
        },
        {
            "bufferView" : 8,
            "componentType" : 5123,
            "count" : 78,
            "type" : "SCALAR"
        }
    ],
    "bufferViews" : [
        {
            "buffer" : 0,
            "byteLength" : 163956,
            "byteOffset" : 0
        },
        {
            "buffer" : 0,
            "byteLength" : 163956,
            "byteOffset" : 163956
        },
        {
            "buffer" : 0,
            "byteLength" : 109304,
            "byteOffset" : 327912
        },
        {
            "buffer" : 0,
            "byteLength" : 124428,
            "byteOffset" : 437216
        },
        {
            "buffer" : 0,
            "byteLength" : 827083,
            "byteOffset" : 561644
        },
        {
            "buffer" : 0,
            "byteLength" : 624,
            "byteOffset" : 1388728
        },
        {
            "buffer" : 0,
            "byteLength" : 624,
            "byteOffset" : 1389352
        },
        {
            "buffer" : 0,
            "byteLength" : 416,
            "byteOffset" : 1389976
        },
        {
            "buffer" : 0,
            "byteLength" : 156,
            "byteOffset" : 1390392
        }
    ],
    "samplers" : [
        {
            "magFilter" : 9729,
            "minFilter" : 9987
        }
    ],
    "buffers" : [
        {
            "byteLength" : 1390548,
            "uri" : "data:application/octet-stream;base64,"
        }
    ]
}
