{
    "asset" : {
        "generator" : "Khronos glTF Blender I/O v1.6.16",
        "version" : "2.0"
    },
    "scene" : 0,
    "scenes" : [
        {
            "name" : "Scene",
            "nodes" : [
                0,
                1
            ]
        }
    ],
    "nodes" : [
        {
            "mesh" : 0,
            "name" : "Sweep.005",
            "rotation" : [
                0.7071068286895752,
                0,
                0,
                0.7071067094802856
            ],
            "scale" : [
                0.00841393694281578,
                0.00841393694281578,
                0.00841393694281578
            ],
            "translation" : [
                -0.23509502410888672,
                0.15704795718193054,
                -3.1797409057617188
            ]
        },
        {
            "mesh" : 1,
            "name" : "imageContainer",
            "rotation" : [
                0.7071068286895752,
                0,
                0,
                0.7071067094802856
            ],
            "scale" : [
                0.00841393694281578,
                0.00841393694281578,
                0.00841393694281578
            ],
            "translation" : [
                -0.23509502410888672,
                0.15704795718193054,
                -3.1797409057617188
            ]
        }
    ],
    "materials" : [
        {
            "doubleSided" : true,
            "name" : "default.001",
            "pbrMetallicRoughness" : {
                "baseColorTexture" : {
                    "index" : 0
                },
                "metallicFactor" : 0,
                "roughnessFactor" : 0.5
            }
        }
    ],
    "meshes" : [
        {
            "name" : "Sweep.005",
            "primitives" : [
                {
                    "attributes" : {
                        "POSITION" : 0,
                        "NORMAL" : 1,
                        "TEXCOORD_0" : 2
                    },
                    "indices" : 3,
                    "material" : 0
                }
            ]
        },
        {
            "name" : "Sweep.002",
            "primitives" : [
                {
                    "attributes" : {
                        "POSITION" : 4,
                        "NORMAL" : 5,
                        "TEXCOORD_0" : 6
                    },
                    "indices" : 7,
                    "material" : 0
                }
            ]
        }
    ],
    "textures" : [
        {
            "sampler" : 0,
            "source" : 0
        }
    ],
    "images" : [
        {
            "bufferView" : 4,
            "mimeType" : "image/jpeg",
            "name" : "metal-base"
        }
    ],
    "accessors" : [
        {
            "bufferView" : 0,
            "componentType" : 5126,
            "count" : 33662,
            "max" : [
                3641.46630859375,
                1202.21728515625,
                -1.1672402620315552
            ],
            "min" : [
                -3641.46630859375,
                -1202.21728515625,
                -12946.8310546875
            ],
            "type" : "VEC3"
        },
        {
            "bufferView" : 1,
            "componentType" : 5126,
            "count" : 33662,
            "type" : "VEC3"
        },
        {
            "bufferView" : 2,
            "componentType" : 5126,
            "count" : 33662,
            "type" : "VEC2"
        },
        {
            "bufferView" : 3,
            "componentType" : 5123,
            "count" : 169152,
            "type" : "SCALAR"
        },
        {
            "bufferView" : 5,
            "componentType" : 5126,
            "count" : 1050,
            "max" : [
                3225.09228515625,
                16.299474716186523,
                -3539.123779296875
            ],
            "min" : [
                -3225.09228515625,
                -9.830952644348145,
                -12561.6953125
            ],
            "type" : "VEC3"
        },
        {
            "bufferView" : 6,
            "componentType" : 5126,
            "count" : 1050,
            "type" : "VEC3"
        },
        {
            "bufferView" : 7,
            "componentType" : 5126,
            "count" : 1050,
            "type" : "VEC2"
        },
        {
            "bufferView" : 8,
            "componentType" : 5123,
            "count" : 5760,
            "type" : "SCALAR"
        }
    ],
    "bufferViews" : [
        {
            "buffer" : 0,
            "byteLength" : 403944,
            "byteOffset" : 0
        },
        {
            "buffer" : 0,
            "byteLength" : 403944,
            "byteOffset" : 403944
        },
        {
            "buffer" : 0,
            "byteLength" : 269296,
            "byteOffset" : 807888
        },
        {
            "buffer" : 0,
            "byteLength" : 338304,
            "byteOffset" : 1077184
        },
        {
            "buffer" : 0,
            "byteLength" : 827083,
            "byteOffset" : 1415488
        },
        {
            "buffer" : 0,
            "byteLength" : 12600,
            "byteOffset" : 2242572
        },
        {
            "buffer" : 0,
            "byteLength" : 12600,
            "byteOffset" : 2255172
        },
        {
            "buffer" : 0,
            "byteLength" : 8400,
            "byteOffset" : 2267772
        },
        {
            "buffer" : 0,
            "byteLength" : 11520,
            "byteOffset" : 2276172
        }
    ],
    "samplers" : [
        {
            "magFilter" : 9729,
            "minFilter" : 9987
        }
    ],
    "buffers" : [
        {
            "byteLength" : 2287692,
            "uri" : "data:application/octet-stream;base64,"
        }
    ]
}
