{
    "asset" : {
        "generator" : "Khronos glTF Blender I/O v1.6.16",
        "version" : "2.0"
    },
    "scene" : 0,
    "scenes" : [
        {
            "name" : "Scene",
            "nodes" : [
                0,
                1
            ]
        }
    ],
    "nodes" : [
        {
            "mesh" : 0,
            "name" : "Disc.008",
            "rotation" : [
                0.7071068286895752,
                0,
                0,
                0.7071067094802856
            ],
            "scale" : [
                0.00841393694281578,
                0.00841393694281578,
                0.00841393694281578
            ],
            "translation" : [
                0.09722900390625,
                152.39222717285156,
                -0.1281183958053589
            ]
        },
        {
            "mesh" : 1,
            "name" : "imageContainer.005",
            "rotation" : [
                0.7071068286895752,
                0,
                0,
                0.7071067094802856
            ],
            "scale" : [
                0.00841393694281578,
                0.00841393694281578,
                0.00841393694281578
            ],
            "translation" : [
                0.09722900390625,
                152.39222717285156,
                -0.1281183958053589
            ]
        }
    ],
    "materials" : [
        {
            "doubleSided" : true,
            "name" : "default.001",
            "pbrMetallicRoughness" : {
                "baseColorTexture" : {
                    "index" : 0
                },
                "metallicFactor" : 0,
                "roughnessFactor" : 0.5
            }
        }
    ],
    "meshes" : [
        {
            "name" : "Disc.008",
            "primitives" : [
                {
                    "attributes" : {
                        "POSITION" : 0,
                        "NORMAL" : 1,
                        "TEXCOORD_0" : 2
                    },
                    "indices" : 3,
                    "material" : 0
                }
            ]
        },
        {
            "name" : "Disc.001",
            "primitives" : [
                {
                    "attributes" : {
                        "POSITION" : 4,
                        "NORMAL" : 5,
                        "TEXCOORD_0" : 6
                    },
                    "indices" : 7,
                    "material" : 0
                }
            ]
        }
    ],
    "textures" : [
        {
            "sampler" : 0,
            "source" : 0
        }
    ],
    "images" : [
        {
            "bufferView" : 4,
            "mimeType" : "image/jpeg",
            "name" : "metal-base"
        }
    ],
    "accessors" : [
        {
            "bufferView" : 0,
            "componentType" : 5126,
            "count" : 21016,
            "max" : [
                6298.9560546875,
                732.06884765625,
                18112.248046875
            ],
            "min" : [
                -6307.55859375,
                -732.24951171875,
                -12723.796875
            ],
            "type" : "VEC3"
        },
        {
            "bufferView" : 1,
            "componentType" : 5126,
            "count" : 21016,
            "type" : "VEC3"
        },
        {
            "bufferView" : 2,
            "componentType" : 5126,
            "count" : 21016,
            "type" : "VEC2"
        },
        {
            "bufferView" : 3,
            "componentType" : 5123,
            "count" : 94080,
            "type" : "SCALAR"
        },
        {
            "bufferView" : 5,
            "componentType" : 5126,
            "count" : 4016,
            "max" : [
                6174.0888671875,
                4.91015625,
                7714.6884765625
            ],
            "min" : [
                -6166.205078125,
                -5.08984375,
                -12285.310546875
            ],
            "type" : "VEC3"
        },
        {
            "bufferView" : 6,
            "componentType" : 5126,
            "count" : 4016,
            "type" : "VEC3"
        },
        {
            "bufferView" : 7,
            "componentType" : 5126,
            "count" : 4016,
            "type" : "VEC2"
        },
        {
            "bufferView" : 8,
            "componentType" : 5123,
            "count" : 20952,
            "type" : "SCALAR"
        }
    ],
    "bufferViews" : [
        {
            "buffer" : 0,
            "byteLength" : 252192,
            "byteOffset" : 0
        },
        {
            "buffer" : 0,
            "byteLength" : 252192,
            "byteOffset" : 252192
        },
        {
            "buffer" : 0,
            "byteLength" : 168128,
            "byteOffset" : 504384
        },
        {
            "buffer" : 0,
            "byteLength" : 188160,
            "byteOffset" : 672512
        },
        {
            "buffer" : 0,
            "byteLength" : 827083,
            "byteOffset" : 860672
        },
        {
            "buffer" : 0,
            "byteLength" : 48192,
            "byteOffset" : 1687756
        },
        {
            "buffer" : 0,
            "byteLength" : 48192,
            "byteOffset" : 1735948
        },
        {
            "buffer" : 0,
            "byteLength" : 32128,
            "byteOffset" : 1784140
        },
        {
            "buffer" : 0,
            "byteLength" : 41904,
            "byteOffset" : 1816268
        }
    ],
    "samplers" : [
        {
            "magFilter" : 9729,
            "minFilter" : 9987
        }
    ],
    "buffers" : [
        {
            "byteLength" : 1858172,
            "uri" : "data:application/octet-stream;base64,"
        }
    ]
}
