{
    "asset" : {
        "generator" : "Khronos glTF Blender I/O v1.6.16",
        "version" : "2.0"
    },
    "scene" : 0,
    "scenes" : [
        {
            "name" : "Scene",
            "nodes" : [
                0,
                1
            ]
        }
    ],
    "nodes" : [
        {
            "mesh" : 0,
            "name" : "Circle",
            "rotation" : [
                0,
                1,
                0,
                -1.6292068494294654e-07
            ],
            "scale" : [
                0.48500409722328186,
                0.48500409722328186,
                0.48500409722328186
            ],
            "translation" : [
                0.059985920786857605,
                63.08441162109375,
                -25.282470703125
            ]
        },
        {
            "mesh" : 1,
            "name" : "imageContainer.006",
            "rotation" : [
                0,
                0.9909360408782959,
                -0.13433465361595154,
                -4.0378358789894264e-07
            ],
            "scale" : [
                0.48500409722328186,
                0.48500409722328186,
                0.48500409722328186
            ],
            "translation" : [
                0.10984039306640625,
                116.54690551757812,
                -44.41845703125
            ]
        }
    ],
    "meshes" : [
        {
            "name" : "Circle",
            "primitives" : [
                {
                    "attributes" : {
                        "POSITION" : 0,
                        "NORMAL" : 1,
                        "TEXCOORD_0" : 2
                    },
                    "indices" : 3
                }
            ]
        },
        {
            "name" : "Circle.001",
            "primitives" : [
                {
                    "attributes" : {
                        "POSITION" : 4,
                        "NORMAL" : 5,
                        "TEXCOORD_0" : 6
                    },
                    "indices" : 7
                }
            ]
        }
    ],
    "accessors" : [
        {
            "bufferView" : 0,
            "componentType" : 5126,
            "count" : 788,
            "max" : [
                65.92311096191406,
                175.22732543945312,
                60.22041320800781
            ],
            "min" : [
                -65.67570495605469,
                -129.6928253173828,
                -136.45205688476562
            ],
            "type" : "VEC3"
        },
        {
            "bufferView" : 1,
            "componentType" : 5126,
            "count" : 788,
            "type" : "VEC3"
        },
        {
            "bufferView" : 2,
            "componentType" : 5126,
            "count" : 788,
            "type" : "VEC2"
        },
        {
            "bufferView" : 3,
            "componentType" : 5123,
            "count" : 3888,
            "type" : "SCALAR"
        },
        {
            "bufferView" : 4,
            "componentType" : 5126,
            "count" : 16,
            "max" : [
                53.74761962890625,
                48.267822265625,
                29.569499969482422
            ],
            "min" : [
                -53.654457092285156,
                -48.68473815917969,
                -29.402986526489258
            ],
            "type" : "VEC3"
        },
        {
            "bufferView" : 5,
            "componentType" : 5126,
            "count" : 16,
            "type" : "VEC3"
        },
        {
            "bufferView" : 6,
            "componentType" : 5126,
            "count" : 16,
            "type" : "VEC2"
        },
        {
            "bufferView" : 7,
            "componentType" : 5123,
            "count" : 42,
            "type" : "SCALAR"
        }
    ],
    "bufferViews" : [
        {
            "buffer" : 0,
            "byteLength" : 9456,
            "byteOffset" : 0
        },
        {
            "buffer" : 0,
            "byteLength" : 9456,
            "byteOffset" : 9456
        },
        {
            "buffer" : 0,
            "byteLength" : 6304,
            "byteOffset" : 18912
        },
        {
            "buffer" : 0,
            "byteLength" : 7776,
            "byteOffset" : 25216
        },
        {
            "buffer" : 0,
            "byteLength" : 192,
            "byteOffset" : 32992
        },
        {
            "buffer" : 0,
            "byteLength" : 192,
            "byteOffset" : 33184
        },
        {
            "buffer" : 0,
            "byteLength" : 128,
            "byteOffset" : 33376
        },
        {
            "buffer" : 0,
            "byteLength" : 84,
            "byteOffset" : 33504
        }
    ],
    "buffers" : [
        {
            "byteLength" : 33588,
            "uri" : "data:application/octet-stream;base64,"
        }
    ]
}
