{
    "asset" : {
        "generator" : "Khronos glTF Blender I/O v1.6.16",
        "version" : "2.0"
    },
    "scene" : 0,
    "scenes" : [
        {
            "name" : "Scene",
            "nodes" : [
                0,
                1
            ]
        }
    ],
    "nodes" : [
        {
            "mesh" : 0,
            "name" : "StandB",
            "rotation" : [
                0,
                0.7071067094802856,
                -0.7071068286895752,
                -1.1520230458472724e-07
            ],
            "scale" : [
                0.011386850848793983,
                0.011386850848793983,
                0.011386850848793983
            ],
            "translation" : [
                1.5437439680099487,
                10.44344711303711,
                -4.3032002449035645
            ]
        },
        {
            "mesh" : 1,
            "name" : "imageContainer",
            "rotation" : [
                0,
                0.7071067094802856,
                -0.7071068286895752,
                -1.1520230458472724e-07
            ],
            "scale" : [
                0.011386850848793983,
                0.011386850848793983,
                0.011386850848793983
            ],
            "translation" : [
                1.5019789934158325,
                110.55609893798828,
                -4.2057414054870605
            ]
        }
    ],
    "materials" : [
        {
            "doubleSided" : true,
            "name" : "default.001",
            "pbrMetallicRoughness" : {
                "baseColorTexture" : {
                    "index" : 0
                },
                "metallicFactor" : 0,
                "roughnessFactor" : 0.5
            }
        }
    ],
    "meshes" : [
        {
            "name" : "Plane.1_1.001",
            "primitives" : [
                {
                    "attributes" : {
                        "POSITION" : 0,
                        "NORMAL" : 1,
                        "TEXCOORD_0" : 2
                    },
                    "indices" : 3,
                    "material" : 0
                }
            ]
        },
        {
            "name" : "Plane.1_1.002",
            "primitives" : [
                {
                    "attributes" : {
                        "POSITION" : 4,
                        "NORMAL" : 5,
                        "TEXCOORD_0" : 6
                    },
                    "indices" : 7,
                    "material" : 0
                }
            ]
        }
    ],
    "textures" : [
        {
            "sampler" : 0,
            "source" : 0
        }
    ],
    "images" : [
        {
            "bufferView" : 4,
            "mimeType" : "image/jpeg",
            "name" : "metal-base"
        }
    ],
    "accessors" : [
        {
            "bufferView" : 0,
            "componentType" : 5126,
            "count" : 14734,
            "max" : [
                3809.1611328125,
                1964.3310546875,
                869.3551025390625
            ],
            "min" : [
                -3801.83984375,
                -1959.45263671875,
                -13812.779296875
            ],
            "type" : "VEC3"
        },
        {
            "bufferView" : 1,
            "componentType" : 5126,
            "count" : 14734,
            "type" : "VEC3"
        },
        {
            "bufferView" : 2,
            "componentType" : 5126,
            "count" : 14734,
            "type" : "VEC2"
        },
        {
            "bufferView" : 3,
            "componentType" : 5123,
            "count" : 66192,
            "type" : "SCALAR"
        },
        {
            "bufferView" : 5,
            "componentType" : 5126,
            "count" : 56,
            "max" : [
                3611.994140625,
                841.24072265625,
                6275.8544921875
            ],
            "min" : [
                -3612.0068359375,
                -841.24267578125,
                -4819.55078125
            ],
            "type" : "VEC3"
        },
        {
            "bufferView" : 6,
            "componentType" : 5126,
            "count" : 56,
            "type" : "VEC3"
        },
        {
            "bufferView" : 7,
            "componentType" : 5126,
            "count" : 56,
            "type" : "VEC2"
        },
        {
            "bufferView" : 8,
            "componentType" : 5123,
            "count" : 156,
            "type" : "SCALAR"
        }
    ],
    "bufferViews" : [
        {
            "buffer" : 0,
            "byteLength" : 176808,
            "byteOffset" : 0
        },
        {
            "buffer" : 0,
            "byteLength" : 176808,
            "byteOffset" : 176808
        },
        {
            "buffer" : 0,
            "byteLength" : 117872,
            "byteOffset" : 353616
        },
        {
            "buffer" : 0,
            "byteLength" : 132384,
            "byteOffset" : 471488
        },
        {
            "buffer" : 0,
            "byteLength" : 827083,
            "byteOffset" : 603872
        },
        {
            "buffer" : 0,
            "byteLength" : 672,
            "byteOffset" : 1430956
        },
        {
            "buffer" : 0,
            "byteLength" : 672,
            "byteOffset" : 1431628
        },
        {
            "buffer" : 0,
            "byteLength" : 448,
            "byteOffset" : 1432300
        },
        {
            "buffer" : 0,
            "byteLength" : 312,
            "byteOffset" : 1432748
        }
    ],
    "samplers" : [
        {
            "magFilter" : 9729,
            "minFilter" : 9987
        }
    ],
    "buffers" : [
        {
            "byteLength" : 1433060,
            "uri" : "data:application/octet-stream;base64,"
        }
    ]
}
