{
    "asset" : {
        "generator" : "Khronos glTF Blender I/O v1.6.16",
        "version" : "2.0"
    },
    "scene" : 0,
    "scenes" : [
        {
            "name" : "Scene",
            "nodes" : [
                0
            ]
        }
    ],
    "nodes" : [
        {
            "mesh" : 0,
            "name" : "LowPoly_Tens_CAFE_VOL01_Bus01_Standard.001",
            "rotation" : [
                0.4837765097618103,
                0.5157133936882019,
                -0.5157134532928467,
                0.48377642035484314
            ],
            "translation" : [
                6.4179840087890625,
                0,
                31.899534225463867
            ]
        }
    ],
    "materials" : [
        {
            "doubleSided" : true,
            "name" : "GTT_Wood_Bright",
            "normalTexture" : {
                "index" : 0
            },
            "pbrMetallicRoughness" : {
                "baseColorTexture" : {
                    "index" : 1
                },
                "metallicFactor" : 0,
                "roughnessFactor" : 0.8945907354354858
            }
        },
        {
            "doubleSided" : true,
            "name" : "GTP_CMan_Spg_Peter_10_Stt_Lsng_BlendMaterial",
            "normalTexture" : {
                "index" : 2,
                "scale" : 0.30000001192092896
            },
            "pbrMetallicRoughness" : {
                "baseColorTexture" : {
                    "index" : 3
                },
                "metallicFactor" : 0,
                "roughnessFactor" : 0.8945907354354858
            }
        }
    ],
    "meshes" : [
        {
            "name" : "LowPoly_Tens_CAFE_VOL01_Bus01_Standard.001",
            "primitives" : [
                {
                    "attributes" : {
                        "POSITION" : 0,
                        "NORMAL" : 1,
                        "TEXCOORD_0" : 2
                    },
                    "indices" : 3,
                    "material" : 0
                },
                {
                    "attributes" : {
                        "POSITION" : 4,
                        "NORMAL" : 5,
                        "TEXCOORD_0" : 6
                    },
                    "indices" : 7,
                    "material" : 1
                }
            ]
        }
    ],
    "textures" : [
        {
            "sampler" : 0,
            "source" : 0
        },
        {
            "sampler" : 0,
            "source" : 0
        },
        {
            "sampler" : 0,
            "source" : 1
        },
        {
            "sampler" : 0,
            "source" : 2
        }
    ],
    "images" : [
        {
            "bufferView" : 4,
            "mimeType" : "image/jpeg",
            "name" : "GTA_Wood_Bright"
        },
        {
            "bufferView" : 9,
            "mimeType" : "image/png",
            "name" : "Normal_Bump_Normal Bump"
        },
        {
            "bufferView" : 10,
            "mimeType" : "image/jpeg",
            "name" : "GTP_CMan_Spg_Peter_10_Stt_Lsng_dff"
        }
    ],
    "accessors" : [
        {
            "bufferView" : 0,
            "componentType" : 5126,
            "count" : 8210,
            "max" : [
                58.0099983215332,
                5.840000152587891,
                0.3199999928474426
            ],
            "min" : [
                18.6200008392334,
                -33.619998931884766,
                -46.02000045776367
            ],
            "type" : "VEC3"
        },
        {
            "bufferView" : 1,
            "componentType" : 5126,
            "count" : 8210,
            "type" : "VEC3"
        },
        {
            "bufferView" : 2,
            "componentType" : 5126,
            "count" : 8210,
            "type" : "VEC2"
        },
        {
            "bufferView" : 3,
            "componentType" : 5123,
            "count" : 29550,
            "type" : "SCALAR"
        },
        {
            "bufferView" : 5,
            "componentType" : 5126,
            "count" : 4463,
            "max" : [
                61.31999969482422,
                46.40999984741211,
                0.25999999046325684
            ],
            "min" : [
                -4.75,
                -36.5,
                -134.49000549316406
            ],
            "type" : "VEC3"
        },
        {
            "bufferView" : 6,
            "componentType" : 5126,
            "count" : 4463,
            "type" : "VEC3"
        },
        {
            "bufferView" : 7,
            "componentType" : 5126,
            "count" : 4463,
            "type" : "VEC2"
        },
        {
            "bufferView" : 8,
            "componentType" : 5123,
            "count" : 17985,
            "type" : "SCALAR"
        }
    ],
    "bufferViews" : [
        {
            "buffer" : 0,
            "byteLength" : 98520,
            "byteOffset" : 0
        },
        {
            "buffer" : 0,
            "byteLength" : 98520,
            "byteOffset" : 98520
        },
        {
            "buffer" : 0,
            "byteLength" : 65680,
            "byteOffset" : 197040
        },
        {
            "buffer" : 0,
            "byteLength" : 59100,
            "byteOffset" : 262720
        },
        {
            "buffer" : 0,
            "byteLength" : 11752,
            "byteOffset" : 321820
        },
        {
            "buffer" : 0,
            "byteLength" : 53556,
            "byteOffset" : 333572
        },
        {
            "buffer" : 0,
            "byteLength" : 53556,
            "byteOffset" : 387128
        },
        {
            "buffer" : 0,
            "byteLength" : 35704,
            "byteOffset" : 440684
        },
        {
            "buffer" : 0,
            "byteLength" : 35970,
            "byteOffset" : 476388
        },
        {
            "buffer" : 0,
            "byteLength" : 321553,
            "byteOffset" : 512360
        },
        {
            "buffer" : 0,
            "byteLength" : 37346,
            "byteOffset" : 833916
        }
    ],
    "samplers" : [
        {
            "magFilter" : 9729,
            "minFilter" : 9987
        }
    ],
    "buffers" : [
        {
            "byteLength" : 871264,
            "uri" : "data:application/octet-stream;base64,"
        }
    ]
}
