<?xml version="1.0" standalone="no"?>
<!DOCTYPE svg PUBLIC "-//W3C//DTD SVG 20010904//EN"
 "http://www.w3.org/TR/2001/REC-SVG-20010904/DTD/svg10.dtd">
<svg version="1.0" xmlns="http://www.w3.org/2000/svg"
 width="1200.000000pt" height="1200.000000pt" viewBox="0 0 1200.000000 1200.000000"
 preserveAspectRatio="xMidYMid meet">
<metadata>
Created by potrace 1.14, written by Peter Selinger 2001-2017
</metadata>
<g transform="translate(0.000000,1200.000000) scale(0.100000,-0.100000)"
fill="#000000" stroke="none">
<path d="M2775 8892 c-1 -2 -29 -5 -61 -7 -54 -4 -139 -13 -189 -20 -11 -1
-48 -8 -82 -14 -35 -7 -75 -14 -90 -17 -16 -3 -36 -7 -45 -10 -10 -3 -30 -8
-45 -10 -47 -9 -204 -55 -273 -81 -36 -14 -65 -24 -65 -23 0 1 -13 -4 -30 -11
-16 -7 -32 -13 -35 -14 -97 -30 -407 -195 -535 -283 -68 -47 -147 -104 -162
-117 -7 -5 -18 -15 -25 -21 -148 -120 -346 -312 -405 -392 -15 -20 -33 -41
-39 -47 -40 -35 -206 -280 -291 -430 -96 -171 -222 -479 -258 -635 -1 -8 -10
-42 -18 -75 -9 -33 -18 -73 -21 -90 -3 -16 -7 -41 -10 -55 -12 -54 -16 -74
-22 -129 -3 -31 -8 -59 -10 -62 -21 -36 -22 -586 0 -694 2 -11 7 -47 11 -80 4
-33 16 -103 27 -155 11 -52 22 -106 24 -119 3 -14 7 -28 10 -33 3 -5 8 -20 10
-35 7 -38 82 -260 105 -310 10 -24 19 -50 19 -58 0 -8 5 -15 10 -15 6 0 10 -6
10 -14 0 -24 156 -327 173 -334 4 -2 7 -7 7 -12 0 -9 117 -190 129 -200 3 -3
25 -30 47 -60 113 -152 294 -340 443 -460 23 -19 49 -40 56 -47 21 -20 186
-136 245 -173 30 -19 57 -37 60 -40 12 -13 344 -180 357 -180 5 0 28 -9 51
-20 22 -11 47 -20 55 -20 7 0 17 -4 23 -8 20 -17 295 -99 392 -117 13 -2 31
-6 40 -9 9 -3 35 -8 57 -11 22 -4 51 -8 65 -10 161 -26 223 -30 450 -30 204 0
285 4 390 20 19 3 55 8 78 10 24 3 47 7 50 9 4 2 24 7 44 10 21 3 57 11 80 16
24 6 54 13 68 16 29 6 92 25 205 62 44 14 82 27 85 27 25 7 260 108 290 125 8
5 35 19 60 31 25 13 80 44 123 71 43 26 80 48 83 48 4 0 145 98 184 129 14 10
43 33 65 50 111 87 297 264 395 380 25 29 50 58 55 64 6 7 28 37 50 67 49 68
49 68 80 106 29 37 32 64 7 64 -10 0 -22 4 -28 8 -5 4 -47 23 -94 41 -47 18
-103 41 -125 51 -22 10 -53 23 -70 30 -187 76 -615 253 -630 260 -11 5 -60 26
-110 46 -122 49 -155 63 -187 80 -16 9 -28 13 -28 9 0 -3 -18 4 -39 15 l-39
20 -100 -98 c-55 -53 -107 -103 -115 -110 -43 -33 -183 -122 -193 -122 -7 0
-14 -3 -16 -8 -9 -22 -214 -98 -340 -127 -150 -34 -358 -38 -498 -9 -14 3 -34
7 -45 9 -37 7 -79 18 -105 27 -8 3 -44 16 -80 29 -61 21 -269 124 -280 138 -3
3 -22 17 -42 31 -21 14 -38 28 -38 33 0 4 -6 7 -13 7 -22 0 -193 174 -257 262
-33 46 -64 88 -68 93 -13 17 -92 173 -92 182 0 9 4035 12 4043 3 3 -4 17 -52
31 -110 39 -158 176 -478 279 -648 28 -48 58 -100 66 -115 8 -15 18 -27 23
-27 4 0 8 -7 8 -15 0 -8 4 -15 8 -15 5 0 15 -12 23 -27 8 -16 16 -30 19 -33 3
-3 34 -43 70 -90 77 -102 115 -144 245 -276 126 -127 376 -334 403 -334 6 0
12 -3 14 -7 5 -12 210 -143 223 -143 2 0 26 -13 52 -28 26 -16 53 -30 58 -31
6 -2 44 -19 85 -38 126 -59 335 -137 396 -149 6 -1 36 -9 65 -17 55 -16 66
-19 154 -37 63 -13 102 -20 140 -26 17 -2 41 -6 55 -9 14 -3 54 -7 90 -10 36
-3 85 -8 110 -10 53 -5 327 -6 385 -1 128 11 183 17 205 21 14 3 41 7 60 9 30
4 109 19 210 40 72 16 318 92 375 116 11 5 61 25 110 46 89 37 261 124 300
150 11 8 22 14 26 14 3 0 59 -81 125 -180 l119 -179 838 -1 c474 0 837 4 837
9 0 5 -7 14 -15 21 -8 7 -15 17 -15 22 0 5 -16 32 -35 61 -19 28 -35 57 -35
64 0 7 -4 13 -8 13 -5 0 -16 15 -25 33 -20 38 -43 77 -80 134 -15 24 -27 47
-27 53 0 5 -4 10 -10 10 -5 0 -10 4 -10 8 0 7 -187 321 -272 457 -10 17 -21
38 -24 48 -4 9 -10 17 -15 17 -5 0 -9 4 -9 9 0 5 -57 102 -127 217 -69 115
-133 220 -141 234 -14 23 -13 30 12 80 15 30 31 62 36 70 14 22 68 145 102
230 16 41 33 84 38 95 12 28 44 134 70 230 27 103 30 113 35 154 3 18 7 36 9
40 3 3 7 24 10 46 3 22 11 72 16 110 24 157 32 470 17 625 -3 36 -8 88 -11
115 -5 51 -22 160 -31 205 -3 14 -7 37 -9 51 -19 132 -150 511 -232 671 -8 15
-14 31 -13 34 0 4 -4 10 -11 14 -6 4 -13 13 -14 21 -3 16 -26 58 -77 139 -20
31 -40 67 -44 79 -3 11 -10 21 -15 21 -5 0 -11 8 -14 18 -4 10 -14 27 -24 38
-10 10 -27 35 -39 54 -12 19 -34 48 -48 64 -14 16 -25 32 -25 35 0 3 -15 22
-33 42 -17 20 -59 67 -92 104 -33 37 -87 93 -120 125 -113 109 -158 150 -161
150 -4 0 -40 30 -68 55 -24 23 -195 143 -261 184 -107 68 -120 75 -120 70 0
-2 -13 5 -30 17 -31 21 -202 109 -220 113 -5 1 -30 11 -54 22 -24 10 -45 19
-47 19 -1 0 -15 5 -31 12 -15 6 -31 12 -35 12 -3 1 -10 4 -14 9 -4 4 -13 7
-20 7 -7 0 -25 5 -41 11 -15 6 -30 11 -33 11 -3 0 -30 9 -60 20 -30 10 -56 18
-58 18 -5 -1 -59 12 -82 21 -14 4 -36 10 -50 13 -22 3 -97 18 -110 21 -3 1
-27 5 -55 10 -27 4 -59 9 -70 11 -79 15 -175 19 -420 19 -252 -1 -308 -3 -410
-19 -421 -65 -810 -211 -1155 -434 -82 -53 -214 -148 -255 -184 -11 -9 -40
-34 -65 -55 -63 -53 -256 -247 -313 -313 -26 -30 -74 -91 -107 -135 -32 -44
-64 -85 -70 -92 -5 -7 -10 -16 -10 -21 0 -5 -9 -17 -20 -27 -11 -10 -20 -22
-20 -28 0 -5 -10 -23 -22 -40 -13 -18 -28 -41 -34 -52 -6 -11 -21 -38 -34 -60
-51 -89 -169 -335 -174 -365 -1 -6 -24 -65 -36 -95 -25 -60 -67 -209 -69 -244
-1 -14 -16 -7 -16 7 -2 30 -106 327 -130 372 -7 14 -13 29 -13 33 0 13 -101
216 -145 292 -22 39 -69 114 -106 168 -36 54 -70 106 -76 115 -5 9 -15 21 -21
27 -6 5 -26 30 -45 55 -93 123 -271 306 -411 423 -65 54 -247 187 -257 187 -5
0 -11 4 -13 8 -13 34 -529 294 -608 307 -3 0 -41 13 -85 28 -196 65 -461 118
-670 133 -88 6 -385 11 -390 6z m335 -1386 c19 -3 46 -8 60 -10 216 -39 467
-157 633 -298 190 -161 346 -373 416 -568 7 -19 17 -44 22 -55 16 -38 39 -128
34 -134 -3 -2 -602 -5 -1332 -5 -1031 -1 -1327 2 -1330 11 -5 12 27 119 54
183 22 53 114 234 122 240 8 7 51 68 51 74 0 12 187 208 246 257 53 45 178
126 250 163 93 47 294 123 294 110 0 -2 12 1 27 7 15 6 46 13 68 16 22 3 58 9
80 13 45 8 252 6 305 -4z m5630 -210 c14 -3 39 -8 55 -10 57 -8 160 -37 240
-68 106 -41 265 -125 265 -140 0 -5 5 -8 11 -8 37 0 266 -226 334 -330 28 -41
52 -77 55 -80 3 -3 24 -43 47 -90 49 -100 95 -237 112 -335 7 -38 16 -83 20
-100 8 -36 6 -276 -3 -322 -3 -18 -8 -48 -11 -65 -3 -18 -10 -49 -15 -68 -5
-19 -11 -46 -14 -60 -17 -96 -144 -349 -231 -458 -21 -27 -191 -198 -219 -221
-25 -20 -142 -98 -191 -126 -16 -10 -9 -24 69 -143 47 -72 86 -136 86 -141 0
-5 4 -11 8 -13 9 -3 72 -93 72 -103 0 -8 43 -69 53 -73 4 -2 7 -8 7 -13 0 -11
42 -72 53 -77 4 -2 7 -8 7 -13 0 -6 17 -36 38 -67 54 -80 59 -89 41 -76 -8 6
-57 28 -109 49 -95 38 -132 53 -192 79 -18 8 -127 53 -243 101 -115 47 -223
92 -240 100 -16 7 -55 23 -85 35 -52 20 -85 34 -155 66 -16 7 -120 50 -230 95
-110 45 -224 92 -253 105 -29 13 -57 24 -62 24 -19 0 -203 100 -264 144 -61
43 -125 97 -170 142 -79 79 -176 201 -176 222 0 6 -4 12 -8 12 -8 0 -65 95
-67 110 -1 3 -9 20 -18 37 -30 57 -85 222 -102 308 -20 99 -27 329 -14 420 15
98 17 107 34 170 24 91 35 124 67 195 125 281 320 492 596 643 45 25 85 46 88
46 10 -1 99 35 112 44 6 5 12 7 12 3 0 -3 12 -1 28 5 27 11 46 16 92 25 14 3
32 7 40 9 8 3 42 7 75 10 33 4 61 8 63 10 6 5 264 -3 292 -9z"/>
</g>
</svg>
